<?xml version="1.0" encoding="UTF-8" standalone="no"?>
<svg width="331px" height="334px" viewBox="0 0 331 334" version="1.1" xmlns="http://www.w3.org/2000/svg" xmlns:xlink="http://www.w3.org/1999/xlink">
    <!-- Generator: Sketch 39.1 (31720) - http://www.bohemiancoding.com/sketch -->
    <title>Slice 2</title>
    <desc>Created with Sketch.</desc>
    <defs></defs>
    <g id="obrázok" stroke="none" stroke-width="1" fill="none" fill-rule="evenodd">
        <g id="lifecycle" transform="translate(-45.000000, -35.000000)">
            <g id="Group-2">
                <path d="M204.035184,285.756387 C176.609594,283.68152 152.839987,268.514999 138.95992,246.490382 L93.0014881,246.490381 L70.9139616,284.747099 C98.2144618,330.425279 147.300254,361.580872 203.822767,363.865308 L182,325 L204.035184,285.756387 Z" id="Combined-Shape" fill="#DD3036"></path>
                <path d="M224.105929,68.2395168 C196.68034,66.1646497 172.910732,50.998129 159.030666,28.9735121 L113.072233,28.9735113 L90.9847067,67.2302293 C118.285207,112.908409 167.370999,144.064002 223.893512,146.348439 L202.070745,107.48313 L224.105929,68.2395168 Z" id="Combined-Shape" fill="#2A96CF" transform="translate(157.545318, 87.660975) rotate(120.000000) translate(-157.545318, -87.660975) "></path>
                <path d="M151.284596,170.807876 C123.859006,168.733009 100.089399,153.566489 86.2093326,131.541872 L40.2509001,131.541871 L18.1633737,169.798589 C45.4638738,215.476768 94.549666,246.632362 151.072179,248.916798 L129.249412,210.05149 L151.284596,170.807876 Z" id="Combined-Shape" fill="#696663" transform="translate(84.723985, 190.229335) rotate(60.000000) translate(-84.723985, -190.229335) "></path>
            </g>
            <g id="Group" transform="translate(299.967879, 222.362523) rotate(180.000000) translate(-299.967879, -222.362523) translate(178.967879, 39.862523)">
                <path d="M204.121222,286.266005 C176.695633,284.191138 152.926026,269.024618 139.045959,247.000001 L93.0875264,247 L71,285.256718 C98.3005001,330.934898 147.386292,362.090491 203.908805,364.374927 L182.086038,325.509619 L204.121222,286.266005 Z" id="Combined-Shape" fill="#548D46"></path>
                <path d="M223.635165,68.5477947 C196.209575,66.4729277 172.439968,51.3064069 158.559901,29.2817901 L112.601469,29.2817892 L90.5139423,67.5385072 C117.814442,113.216687 166.900235,144.37228 223.422747,146.656716 L201.599981,107.791408 L223.635165,68.5477947 Z" id="Combined-Shape" fill="#A9793C" transform="translate(157.074553, 87.969253) rotate(120.000000) translate(-157.074553, -87.969253) "></path>
                <path d="M151.284596,171.807876 C123.859006,169.733009 100.089399,154.566489 86.2093326,132.541872 L40.2509001,132.541871 L18.1633737,170.798589 C45.4638738,216.476768 94.549666,247.632362 151.072179,249.916798 L129.249412,211.05149 L151.284596,171.807876 Z" id="Combined-Shape" fill="#154F86" transform="translate(84.723985, 191.229335) rotate(60.000000) translate(-84.723985, -191.229335) "></path>
            </g>
            <path d="M294.806,112.994 C292.487,112.994 290.409,114.033 289.003,115.665 L277.892,107.82 C278.76,106.374 279.268,104.689 279.268,102.883 C279.268,101.678 279.036,100.53 278.63,99.465 L288.988,94.719 C290.109,96.684 292.22,98.015 294.64,98.015 C298.228,98.015 301.148,95.095 301.148,91.506 C301.148,87.919 298.228,85 294.64,85 C291.052,85 288.132,87.919 288.132,91.506 C288.132,92.142 288.228,92.757 288.399,93.34 L277.99,98.109 C276.327,95.212 273.208,93.251 269.633,93.251 C264.321,93.251 260,97.572 260,102.883 C260,108.196 264.321,112.518 269.633,112.518 C272.603,112.518 275.261,111.166 277.03,109.048 L288.139,116.891 C287.509,118.003 287.144,119.284 287.144,120.65 C287.144,124.874 290.581,128.309 294.806,128.309 C299.029,128.309 302.463,124.874 302.463,120.65 C302.463,116.428 299.029,112.994 294.806,112.994 L294.806,112.994 Z M294.64,86.5 C297.401,86.5 299.648,88.745 299.648,91.506 C299.648,94.268 297.401,96.515 294.64,96.515 C291.879,96.515 289.632,94.268 289.632,91.506 C289.632,88.745 291.879,86.5 294.64,86.5 L294.64,86.5 Z M269.633,111.018 C265.148,111.018 261.5,107.369 261.5,102.883 C261.5,98.399 265.148,94.751 269.633,94.751 C274.119,94.751 277.768,98.399 277.768,102.883 C277.768,107.369 274.119,111.018 269.633,111.018 L269.633,111.018 Z M294.806,126.809 C291.408,126.809 288.644,124.046 288.644,120.65 C288.644,117.256 291.408,114.494 294.806,114.494 C298.201,114.494 300.963,117.256 300.963,120.65 C300.963,124.046 298.201,126.809 294.806,126.809 L294.806,126.809 Z" id="Fill-181" fill="#FFFFFF"></path>
            <path d="M326.773,227.482 L319.168,235.011 C318.874,235.302 318.872,235.777 319.163,236.071 C319.31,236.22 319.503,236.294 319.696,236.294 C319.887,236.294 320.078,236.222 320.224,236.077 L327.828,228.549 C328.123,228.257 328.125,227.782 327.833,227.487 C327.541,227.193 327.067,227.192 326.773,227.482 L326.773,227.482 Z M337.695,227.482 C337.401,227.192 336.926,227.193 336.635,227.487 C336.343,227.782 336.345,228.257 336.64,228.548 L344.24,236.076 C344.387,236.222 344.577,236.294 344.768,236.294 C344.961,236.294 345.154,236.22 345.301,236.071 C345.592,235.777 345.59,235.303 345.296,235.011 L337.695,227.482 L337.695,227.482 Z M321.314,217.247 C321.506,217.247 321.698,217.174 321.844,217.027 L328.856,210.015 L334.071,215.231 C334.212,215.371 334.402,215.45 334.602,215.45 C334.8,215.45 334.991,215.371 335.132,215.231 L343.681,206.682 C343.974,206.389 343.974,205.914 343.681,205.621 C343.388,205.328 342.914,205.328 342.621,205.621 L334.602,213.64 L329.387,208.424 C329.246,208.283 329.055,208.204 328.856,208.204 C328.658,208.204 328.467,208.283 328.326,208.424 L320.784,215.967 C320.491,216.26 320.491,216.734 320.784,217.027 C320.93,217.174 321.122,217.247 321.314,217.247 L321.314,217.247 Z M352.713,224.349 L349.385,224.349 L349.385,200.1 L352.713,200.1 C353.127,200.1 353.463,199.764 353.463,199.35 C353.463,198.936 353.127,198.6 352.713,198.6 L311.75,198.6 C311.336,198.6 311,198.936 311,199.35 C311,199.764 311.336,200.1 311.75,200.1 L315.08,200.1 L315.08,224.349 L311.75,224.349 C311.336,224.349 311,224.685 311,225.099 C311,225.513 311.336,225.849 311.75,225.849 L352.713,225.849 C353.127,225.849 353.463,225.513 353.463,225.099 C353.463,224.685 353.127,224.349 352.713,224.349 L352.713,224.349 Z M316.58,200.1 L347.885,200.1 L347.885,224.349 L316.58,224.349 L316.58,200.1 Z" id="Fill-169" fill="#FFFFFF"></path>
            <path d="M253.099882,325.96375 L253.099882,329.64475 C253.099882,330.05875 253.434882,330.39475 253.849882,330.39475 C254.263882,330.39475 254.599882,330.05875 254.599882,329.64475 L254.599882,325.66575 C254.599882,325.47475 254.525882,325.29075 254.394882,325.15075 L246.976882,317.28375 L260.620882,294.44075 L260.620882,309.30275 C259.444882,309.63275 258.574882,310.70275 258.574882,311.98175 C258.574882,313.52475 259.829882,314.78075 261.370882,314.78075 C262.914882,314.78075 264.171882,313.52475 264.171882,311.98175 C264.171882,310.70175 263.299882,309.63175 262.120882,309.30175 L262.120882,294.44475 L275.772882,317.29375 L268.618882,325.16075 C268.492882,325.29975 268.423882,325.47975 268.423882,325.66575 L268.423882,329.64475 C268.423882,330.05875 268.759882,330.39475 269.173882,330.39475 C269.587882,330.39475 269.923882,330.05875 269.923882,329.64475 L269.923882,325.95575 L277.256882,317.89175 C277.479882,317.64675 277.515882,317.28575 277.346882,317.00175 L262.013882,291.33975 C261.741882,290.88675 260.996882,290.88675 260.725882,291.33975 L245.397882,317.00175 C245.225882,317.28975 245.266882,317.65675 245.496882,317.90075 L253.099882,325.96375 L253.099882,325.96375 Z M261.370882,310.68775 C262.087882,310.68775 262.671882,311.26875 262.671882,311.98175 C262.671882,312.69775 262.087882,313.28075 261.370882,313.28075 C260.656882,313.28075 260.074882,312.69775 260.074882,311.98175 C260.074882,311.26875 260.656882,310.68775 261.370882,310.68775 L261.370882,310.68775 Z M277.303882,332.51875 C277.229882,332.17175 276.923882,331.92375 276.569882,331.92375 L245.699882,331.92375 C245.344882,331.92375 245.038882,332.17175 244.965882,332.51875 L244.015882,337.02075 C243.969882,337.24175 244.024882,337.47275 244.166882,337.64775 C244.309882,337.82375 244.523882,337.92575 244.749882,337.92575 L277.520882,337.92575 C277.746882,337.92575 277.960882,337.82375 278.102882,337.64775 C278.245882,337.47275 278.301882,337.24175 278.254882,337.02075 L277.303882,332.51875 L277.303882,332.51875 Z M245.674882,336.42575 L246.307882,333.42375 L275.961882,333.42375 L276.595882,336.42575 L245.674882,336.42575 L245.674882,336.42575 Z" id="Fill-40" fill="#FFFFFF"></path>
            <path d="M125.717236,292.030047 L117.004236,292.034047 C117.004236,292.034047 116.881236,292.021047 116.679236,292.021047 C116.031236,292.021047 114.810236,292.160047 113.927236,293.097047 C113.245236,293.822047 112.935236,294.843047 113.011236,296.131047 C113.224236,299.759047 114.226236,313.969047 114.233236,314.060047 C114.233236,315.611047 115.170236,318.546047 118.717236,318.546047 L126.033236,318.545047 C126.047236,318.546047 126.080236,318.546047 126.092236,318.546047 C126.871236,318.546047 128.191236,318.025047 128.191236,316.070047 L128.191236,295.231047 C128.260236,294.874047 128.411236,293.739047 127.745236,292.891047 C127.435236,292.498047 126.833236,292.030047 125.717236,292.030047 L125.717236,292.030047 Z M126.712236,294.975047 C126.698236,295.032047 126.691236,295.092047 126.691236,295.151047 L126.691236,316.070047 C126.691236,316.918047 126.315236,317.046047 126.092236,317.046047 L126.092236,317.796047 L126.072236,317.046047 L118.717236,317.046047 C115.843236,317.046047 115.736236,314.362047 115.732236,314.007047 C115.722236,313.864047 114.722236,299.663047 114.510236,296.043047 C114.459236,295.183047 114.631236,294.538047 115.019236,294.126047 C115.533236,293.579047 116.351236,293.521047 116.679236,293.521047 C116.773236,293.521047 116.834236,293.526047 116.924236,293.530047 L125.717236,293.530047 C126.129236,293.530047 126.412236,293.626047 126.564236,293.816047 C126.826236,294.146047 126.757236,294.781047 126.712236,294.975047 L126.712236,294.975047 Z M155.515236,296.657047 C155.412236,296.611047 155.307236,296.570047 155.203236,296.530047 C155.967236,296.051047 156.726236,295.251047 156.726236,293.872047 C156.726236,292.930047 156.440236,292.183047 155.875236,291.653047 C155.006236,290.830047 153.789236,290.767047 153.437236,290.767047 L146.787236,290.767047 C146.678236,290.767047 146.441236,290.648047 146.408236,290.636047 C146.195236,289.463047 145.951236,288.134047 147.097236,285.858047 C147.664236,284.731047 147.640236,282.448047 147.040236,280.181047 C146.478236,278.036047 145.467236,276.131047 144.187236,274.817047 C144.162236,274.790047 144.134236,274.767047 144.107236,274.744047 C143.823236,274.526047 142.801236,273.831047 141.624236,274.038047 C140.855236,274.173047 140.210236,274.645047 139.703236,275.440047 C139.627236,275.561047 139.586236,275.700047 139.586236,275.843047 L139.578236,281.208047 C139.507236,281.896047 139.253236,283.295047 138.742236,284.184047 C138.357236,284.857047 136.539236,287.809047 134.840236,290.418047 C133.245236,292.867047 132.652236,293.623047 132.437236,293.859047 C131.740236,294.634047 130.310236,294.713047 129.519236,294.683047 C129.127236,294.681047 128.758236,294.995047 128.745236,295.409047 C128.732236,295.823047 129.058236,296.169047 129.472236,296.183047 C130.753236,296.221047 132.504236,296.026047 133.551236,294.865047 C133.980236,294.393047 134.836236,293.172047 136.097236,291.236047 C137.697236,288.777047 139.595236,285.714047 140.045236,284.930047 C140.810236,283.596047 141.033236,281.722047 141.053236,281.458047 C141.082236,281.338047 141.086236,281.230047 141.086236,281.148047 L141.086236,276.075047 C141.328236,275.750047 141.591236,275.567047 141.883236,275.515047 C142.424236,275.421047 142.990236,275.788047 143.153236,275.904047 C144.235236,277.035047 145.098236,278.686047 145.590236,280.563047 C146.146236,282.670047 146.092236,284.517047 145.758236,285.184047 C144.386236,287.909047 144.703236,289.641047 144.933236,290.906047 C145.094236,291.782047 146.132236,292.267047 146.787236,292.267047 L153.437236,292.267047 C153.773236,292.267047 154.448236,292.367047 154.847236,292.745047 C155.102236,292.984047 155.226236,293.353047 155.226236,293.872047 C155.226236,294.939047 154.432236,295.329047 153.474236,295.696047 L153.287236,295.770047 C153.082236,295.852047 152.455236,296.102047 152.498236,296.733047 C152.543236,297.368047 153.132236,297.513047 153.701236,297.652047 C154.058236,297.740047 154.502236,297.849047 154.904236,298.027047 C155.424236,298.260047 156.113236,299.350047 156.002236,300.378047 C155.861236,301.649047 154.562236,302.175047 153.495236,302.394047 C152.824236,302.534047 152.578236,302.971047 152.569236,303.332047 C152.564236,303.620047 152.686236,304.137047 153.588236,304.367047 C153.757236,304.416047 154.285236,304.952047 154.316236,305.659047 C154.357236,306.619047 153.412236,307.191047 152.605236,307.504047 C152.556236,307.524047 152.511236,307.538047 152.468236,307.551047 C152.226236,307.629047 151.720236,307.791047 151.578236,308.453047 C151.422236,309.140047 152.025236,309.481047 152.253236,309.609047 C152.615236,309.814047 152.991236,310.026047 152.991236,311.023047 C152.991236,311.349047 152.903236,311.667047 152.726236,311.969047 C152.547236,312.276047 152.090236,312.615047 151.842236,312.798047 C151.390236,313.135047 150.373236,313.557047 149.864236,313.664047 L149.761236,313.686047 C146.477236,314.355047 142.378236,315.187047 136.245236,315.101047 C133.029236,315.052047 131.234236,314.117047 130.372236,313.669047 C129.867236,313.406047 129.502236,313.218047 129.081236,313.434047 C128.724236,313.614047 128.610236,314.027047 128.771236,314.393047 C128.928236,314.744047 129.359236,314.906047 129.724236,314.787047 C129.549236,314.865047 129.388236,314.847047 129.326236,314.825047 C129.408236,314.854047 129.523236,314.918047 129.679236,314.999047 C130.644236,315.501047 132.653236,316.546047 136.222236,316.601047 C136.529236,316.605047 136.828236,316.607047 137.124236,316.607047 C142.933236,316.607047 146.870236,315.806047 150.061236,315.155047 L150.169236,315.133047 C150.861236,314.986047 152.088236,314.485047 152.736236,314.002047 C153.197236,313.662047 153.713236,313.254047 154.023236,312.724047 C154.334236,312.190047 154.492236,311.617047 154.492236,311.023047 C154.492236,309.773047 154.040236,309.102047 153.593236,308.712047 C155.623236,307.759047 155.861236,306.336047 155.811236,305.541047 C155.765236,304.799047 155.418236,304.051047 154.936236,303.537047 C156.930236,302.774047 157.400236,301.381047 157.492236,300.542047 C157.680236,298.831047 156.623236,297.152047 155.515236,296.657047 L155.515236,296.657047 Z" id="Fill-83" fill="#FFFFFF"></path>
            <path d="M97.9544206,175.125 C98.2354206,175.089 98.5304206,175.089 98.8334206,175.128 C99.8264206,175.228 100.716421,175.715 101.341421,176.503 C101.960421,177.271 102.239421,178.247 102.125421,179.275 C102.103421,179.535 102.038421,179.81 101.927421,180.115 C101.784421,180.503 101.983421,180.934 102.372421,181.077 C102.457421,181.109 102.545421,181.123 102.631421,181.123 C102.936421,181.123 103.224421,180.935 103.335421,180.632 C103.494421,180.199 103.587421,179.795 103.618421,179.419 C103.774421,178.013 103.381421,176.644 102.513421,175.567 C101.637421,174.462 100.383421,173.777 99.0064206,173.638 C98.5924206,173.583 98.1714206,173.583 97.7574206,173.638 C97.3474206,173.693 97.0584206,174.07 97.1124206,174.48 C97.1664206,174.891 97.5464206,175.181 97.9544206,175.125 L97.9544206,175.125 Z M107.389421,171.476 C105.770421,169.482 103.432421,168.259 100.809421,168.033 C100.471421,168.001 100.135421,168 99.7344206,168 C99.3204206,168 98.9844206,168.336 98.9844206,168.75 C98.9844206,169.164 99.3204206,169.5 99.7344206,169.5 C100.080421,169.5 100.376421,169.499 100.675421,169.527 C102.894421,169.718 104.865421,170.746 106.220421,172.416 C107.563421,174.101 108.137421,176.245 107.836421,178.446 C107.794421,178.722 107.740421,178.998 107.671421,179.275 C107.570421,179.677 107.814421,180.084 108.216421,180.185 C108.277421,180.2 108.339421,180.207 108.399421,180.207 C108.735421,180.207 109.040421,179.98 109.126421,179.639 C109.207421,179.315 109.271421,178.992 109.321421,178.658 C109.679421,176.038 108.994421,173.49 107.389421,171.476 L107.389421,171.476 Z M83.2404206,203.479 C82.9754206,202.95 82.4194206,202.402 81.8454206,202.144 C81.8074206,202.13 78.0044206,200.827 75.5144206,197.4 C75.3024206,197.09 74.9714206,196.912 74.6044206,196.912 C74.0704206,196.912 73.5594206,197.293 73.3894206,197.774 L69.0804206,206.963 C68.9364206,207.378 68.9874206,207.804 69.2204206,208.132 C69.4544206,208.461 69.8424206,208.65 70.2834206,208.65 L83.5914206,208.65 C84.0454206,208.65 84.4334206,208.452 84.6554206,208.106 C84.8744206,207.763 84.8934206,207.333 84.7164206,206.946 L83.2404206,203.479 L83.2404206,203.479 Z M70.6454206,207.15 L74.6124206,198.692 C77.3794206,202.199 81.1984206,203.508 81.2954206,203.536 C81.4884206,203.625 81.7874206,203.93 81.8794206,204.109 L83.1724206,207.15 L70.6454206,207.15 L70.6454206,207.15 Z M83.5914206,207.9 L83.5914206,207.15 L83.5934206,207.15 L83.5914206,207.9 L83.5914206,207.9 Z M91.7494206,188.122 L93.9604206,184.986 C94.3024206,185.102 94.6544206,185.16 95.0154206,185.16 C96.8774206,185.16 98.3924206,183.645 98.3924206,181.783 C98.3924206,179.919 96.8774206,178.405 95.0154206,178.405 C93.1514206,178.405 91.6364206,179.919 91.6364206,181.783 C91.6364206,182.109 91.6844206,182.43 91.7824206,182.744 L88.4344206,184.872 L76.0344206,172.763 C75.5844206,172.325 75.1584206,172.233 74.8794206,172.233 C74.3514206,172.233 73.6794206,172.592 73.5204206,173.615 C73.4204206,174.326 71.1484206,191.087 78.3354206,198.105 C82.6484206,202.316 90.5924206,203.2 96.4974206,203.2 C100.415421,203.2 103.288421,202.817 103.408421,202.801 C104.073421,202.712 104.551421,202.369 104.720421,201.859 C104.890421,201.346 104.708421,200.78 104.222421,200.305 L91.7494206,188.122 L91.7494206,188.122 Z M95.0154206,179.905 C96.0504206,179.905 96.8924206,180.746 96.8924206,181.783 C96.8924206,182.818 96.0504206,183.66 95.0154206,183.66 C94.6944206,183.66 94.3804206,183.573 94.0794206,183.399 C93.9614206,183.33 93.8324206,183.298 93.7044206,183.298 C93.5974206,183.298 93.4904206,183.321 93.3924206,183.366 C93.4964206,183.153 93.4974206,182.896 93.3764206,182.675 C93.2174206,182.385 93.1364206,182.084 93.1364206,181.783 C93.1364206,180.746 93.9784206,179.905 95.0154206,179.905 L95.0154206,179.905 Z M96.4984206,201.7 L96.4974206,201.7 C90.8714206,201.7 83.3344206,200.89 79.3834206,197.032 C72.8324206,190.635 74.9214206,174.453 75.0014206,173.852 L87.8114206,186.361 C88.0614206,186.604 88.4454206,186.643 88.7384206,186.456 L92.9974206,183.747 L90.1554206,187.781 C89.9434206,188.081 89.9804206,188.492 90.2444206,188.749 L103.120421,201.326 C102.610421,201.389 99.9354206,201.7 96.4984206,201.7 L96.4984206,201.7 Z" id="Fill-195" fill="#FFFFFF"></path>
            <path d="M150.416125,84.7832037 L155.562125,89.9292037 C155.708125,90.0762037 155.900125,90.1492037 156.092125,90.1492037 C156.284125,90.1492037 156.476125,90.0762037 156.623125,89.9292037 C156.916125,89.6362037 156.916125,89.1622037 156.623125,88.8692037 L151.127125,83.3722037 C150.909125,83.1552037 150.583125,83.0922037 150.298125,83.2152037 C147.792125,84.3032037 145.056125,83.8942037 143.329125,82.1742037 C141.869125,80.7112037 141.357125,78.5032037 141.912125,76.3252037 L145.491125,79.9022037 C145.700125,80.1092037 146.008125,80.1752037 146.283125,80.0742037 L149.600125,78.8462037 C149.804125,78.7702037 149.966125,78.6092037 150.042125,78.4032037 L151.266125,75.0962037 C151.368125,74.8222037 151.300125,74.5132037 151.093125,74.3062037 L147.512125,70.7212037 C149.694125,70.1642037 151.900125,70.6772037 153.365125,72.1422037 C155.085125,73.8612037 155.493125,76.5962037 154.404125,79.1102037 C154.282125,79.3922037 154.345125,79.7212037 154.562125,79.9382037 L160.058125,85.4332037 C160.351125,85.7262037 160.825125,85.7262037 161.119125,85.4332037 C161.412125,85.1402037 161.412125,84.6652037 161.119125,84.3732037 L155.972125,79.2272037 C157.056125,76.2782037 156.472125,73.1262037 154.425125,71.0812037 C152.279125,68.9342037 148.906125,68.3962037 145.837125,69.7112037 C145.609125,69.8092037 145.443125,70.0142037 145.396125,70.2582037 C145.349125,70.5022037 145.425125,70.7542037 145.601125,70.9312037 L149.693125,75.0262037 L148.755125,77.5592037 L146.212125,78.5002037 L142.120125,74.4122037 C141.943125,74.2362037 141.687125,74.1582037 141.448125,74.2062037 C141.203125,74.2542037 140.997125,74.4202037 140.900125,74.6492037 C139.591125,77.7212037 140.128125,81.0912037 142.271125,83.2352037 C144.321125,85.2822037 147.472125,85.8652037 150.416125,84.7832037 L150.416125,84.7832037 Z M154.146125,96.2072037 L171.777125,78.5782037 L172.372125,79.1722037 C172.513125,79.3142037 172.704125,79.3922037 172.903125,79.3922037 L172.921125,79.3922037 C173.125125,79.3872037 173.321125,79.2992037 173.458125,79.1472037 L177.749125,74.4352037 C178.019125,74.1382037 178.007125,73.6822037 177.725125,73.3992037 L175.896125,71.5742037 C175.612125,71.2892037 175.157125,71.2802037 174.860125,71.5492037 L170.149125,75.8382037 C169.996125,75.9762037 169.908125,76.1702037 169.903125,76.3752037 C169.898125,76.5812037 169.979125,76.7782037 170.122125,76.9232037 L170.716125,77.5172037 L153.086125,95.1472037 L150.416125,92.4772037 C150.134125,92.1962037 149.637125,92.1962037 149.355125,92.4772037 L140.202125,101.632204 C138.600125,103.235204 138.599125,105.844204 140.200125,107.448204 L141.878125,109.122204 C142.650125,109.897204 143.683125,110.324204 144.784125,110.324204 C145.887125,110.324204 146.920125,109.896204 147.692125,109.122204 L156.847125,99.9682037 C156.987125,99.8282037 157.068125,99.6362037 157.068125,99.4382037 C157.068125,99.2392037 156.987125,99.0482037 156.847125,98.9082037 L154.146125,96.2072037 L154.146125,96.2072037 Z M175.341125,73.1402037 L176.157125,73.9552037 L172.878125,77.5562037 L171.740125,76.4182037 L175.341125,73.1402037 L175.341125,73.1402037 Z M146.629125,108.062204 C145.650125,109.044204 143.919125,109.044204 142.939125,108.062204 L141.262125,106.387204 C140.244125,105.369204 140.245125,103.711204 141.263125,102.693204 L146.925125,97.0302037 L152.271125,102.423204 L146.629125,108.062204 L146.629125,108.062204 Z M153.331125,101.363204 L147.984125,95.9692037 L149.886125,94.0682037 L155.257125,99.4382037 L153.331125,101.363204 L153.331125,101.363204 Z M179.383125,96.0412037 C177.337125,93.9952037 174.191125,93.4112037 171.237125,94.4922037 L164.923125,88.1762037 C164.630125,87.8832037 164.155125,87.8832037 163.862125,88.1762037 C163.569125,88.4692037 163.569125,88.9442037 163.862125,89.2372037 L170.527125,95.9012037 C170.745125,96.1182037 171.074125,96.1812037 171.355125,96.0592037 C173.869125,94.9732037 176.604125,95.3812037 178.321125,97.1022037 C179.790125,98.5692037 180.302125,100.778204 179.742125,102.954204 L176.162125,99.3722037 C175.954125,99.1652037 175.645125,99.0982037 175.370125,99.2002037 L172.067125,100.426204 C171.863125,100.501204 171.700125,100.662204 171.624125,100.867204 L170.388125,104.178204 C170.284125,104.454204 170.353125,104.763204 170.561125,104.971204 L174.144125,108.553204 C171.962125,109.109204 169.754125,108.597204 168.290125,107.132204 C166.571125,105.412204 166.163125,102.677204 167.249125,100.166204 C167.371125,99.8842037 167.309125,99.5562037 167.091125,99.3382037 L160.427125,92.6722037 C160.134125,92.3792037 159.659125,92.3792037 159.366125,92.6722037 C159.073125,92.9642037 159.073125,93.4402037 159.366125,93.7332037 L165.681125,100.049204 C164.600125,102.995204 165.184125,106.146204 167.230125,108.193204 C168.595125,109.559204 170.457125,110.273204 172.423125,110.273204 C173.545125,110.273204 174.702125,110.040204 175.819125,109.562204 C176.048125,109.464204 176.214125,109.259204 176.261125,109.015204 C176.308125,108.770204 176.230125,108.518204 176.054125,108.342204 L171.962125,104.251204 L172.909125,101.713204 L175.441125,100.774204 L179.531125,104.864204 C179.706125,105.039204 179.958125,105.118204 180.203125,105.070204 C180.446125,105.023204 180.652125,104.858204 180.751125,104.629204 C182.069125,101.560204 181.532125,98.1892037 179.383125,96.0412037 L179.383125,96.0412037 Z" id="Fill-187" fill="#FFFFFF"></path>
        </g>
    </g>
</svg>