<?xml version="1.0" encoding="UTF-8" standalone="no"?>
<svg width="76px" height="76px" viewBox="0 0 76 76" version="1.1" xmlns="http://www.w3.org/2000/svg" xmlns:xlink="http://www.w3.org/1999/xlink">
    <!-- Generator: Sketch 39.1 (31720) - http://www.bohemiancoding.com/sketch -->
    <title>Group 18</title>
    <desc>Created with Sketch.</desc>
    <defs></defs>
    <g id="new" stroke="none" stroke-width="1" fill="none" fill-rule="evenodd">
        <g id="Group-12" transform="translate(-1.000000, -508.000000)">
            <g id="Group-18" transform="translate(1.000000, 508.000000)">
                <circle id="Oval" fill="#2794CF" cx="38" cy="38" r="38"></circle>
                <path d="M28.4161253,32.7832037 L33.5621253,37.9292037 C33.7081253,38.0762037 33.9001253,38.1492037 34.0921253,38.1492037 C34.2841253,38.1492037 34.4761253,38.0762037 34.6231253,37.9292037 C34.9161253,37.6362037 34.9161253,37.1622037 34.6231253,36.8692037 L29.1271253,31.3722037 C28.9091253,31.1552037 28.5831253,31.0922037 28.2981253,31.2152037 C25.7921253,32.3032037 23.0561253,31.8942037 21.3291253,30.1742037 C19.8691253,28.7112037 19.3571253,26.5032037 19.9121253,24.3252037 L23.4911253,27.9022037 C23.7001253,28.1092037 24.0081253,28.1752037 24.2831253,28.0742037 L27.6001253,26.8462037 C27.8041253,26.7702037 27.9661253,26.6092037 28.0421253,26.4032037 L29.2661253,23.0962037 C29.3681253,22.8222037 29.3001253,22.5132037 29.0931253,22.3062037 L25.5121253,18.7212037 C27.6941253,18.1642037 29.9001253,18.6772037 31.3651253,20.1422037 C33.0851253,21.8612037 33.4931253,24.5962037 32.4041253,27.1102037 C32.2821253,27.3922037 32.3451253,27.7212037 32.5621253,27.9382037 L38.0581253,33.4332037 C38.3511253,33.7262037 38.8251253,33.7262037 39.1191253,33.4332037 C39.4121253,33.1402037 39.4121253,32.6652037 39.1191253,32.3732037 L33.9721253,27.2272037 C35.0561253,24.2782037 34.4721253,21.1262037 32.4251253,19.0812037 C30.2791253,16.9342037 26.9061253,16.3962037 23.8371253,17.7112037 C23.6091253,17.8092037 23.4431253,18.0142037 23.3961253,18.2582037 C23.3491253,18.5022037 23.4251253,18.7542037 23.6011253,18.9312037 L27.6931253,23.0262037 L26.7551253,25.5592037 L24.2121253,26.5002037 L20.1201253,22.4122037 C19.9431253,22.2362037 19.6871253,22.1582037 19.4481253,22.2062037 C19.2031253,22.2542037 18.9971253,22.4202037 18.9001253,22.6492037 C17.5911253,25.7212037 18.1281253,29.0912037 20.2711253,31.2352037 C22.3211253,33.2822037 25.4721253,33.8652037 28.4161253,32.7832037 L28.4161253,32.7832037 Z M32.1461253,44.2072037 L49.7771253,26.5782037 L50.3721253,27.1722037 C50.5131253,27.3142037 50.7041253,27.3922037 50.9031253,27.3922037 L50.9211253,27.3922037 C51.1251253,27.3872037 51.3211253,27.2992037 51.4581253,27.1472037 L55.7491253,22.4352037 C56.0191253,22.1382037 56.0071253,21.6822037 55.7251253,21.3992037 L53.8961253,19.5742037 C53.6121253,19.2892037 53.1571253,19.2802037 52.8601253,19.5492037 L48.1491253,23.8382037 C47.9961253,23.9762037 47.9081253,24.1702037 47.9031253,24.3752037 C47.8981253,24.5812037 47.9791253,24.7782037 48.1221253,24.9232037 L48.7161253,25.5172037 L31.0861253,43.1472037 L28.4161253,40.4772037 C28.1341253,40.1962037 27.6371253,40.1962037 27.3551253,40.4772037 L18.2021253,49.6322037 C16.6001253,51.2352037 16.5991253,53.8442037 18.2001253,55.4482037 L19.8781253,57.1222037 C20.6501253,57.8972037 21.6831253,58.3242037 22.7841253,58.3242037 C23.8871253,58.3242037 24.9201253,57.8962037 25.6921253,57.1222037 L34.8471253,47.9682037 C34.9871253,47.8282037 35.0681253,47.6362037 35.0681253,47.4382037 C35.0681253,47.2392037 34.9871253,47.0482037 34.8471253,46.9082037 L32.1461253,44.2072037 L32.1461253,44.2072037 Z M53.3411253,21.1402037 L54.1571253,21.9552037 L50.8781253,25.5562037 L49.7401253,24.4182037 L53.3411253,21.1402037 L53.3411253,21.1402037 Z M24.6291253,56.0622037 C23.6501253,57.0442037 21.9191253,57.0442037 20.9391253,56.0622037 L19.2621253,54.3872037 C18.2441253,53.3692037 18.2451253,51.7112037 19.2631253,50.6932037 L24.9251253,45.0302037 L30.2711253,50.4232037 L24.6291253,56.0622037 L24.6291253,56.0622037 Z M31.3311253,49.3632037 L25.9841253,43.9692037 L27.8861253,42.0682037 L33.2571253,47.4382037 L31.3311253,49.3632037 L31.3311253,49.3632037 Z M57.3831253,44.0412037 C55.3371253,41.9952037 52.1911253,41.4112037 49.2371253,42.4922037 L42.9231253,36.1762037 C42.6301253,35.8832037 42.1551253,35.8832037 41.8621253,36.1762037 C41.5691253,36.4692037 41.5691253,36.9442037 41.8621253,37.2372037 L48.5271253,43.9012037 C48.7451253,44.1182037 49.0741253,44.1812037 49.3551253,44.0592037 C51.8691253,42.9732037 54.6041253,43.3812037 56.3211253,45.1022037 C57.7901253,46.5692037 58.3021253,48.7782037 57.7421253,50.9542037 L54.1621253,47.3722037 C53.9541253,47.1652037 53.6451253,47.0982037 53.3701253,47.2002037 L50.0671253,48.4262037 C49.8631253,48.5012037 49.7001253,48.6622037 49.6241253,48.8672037 L48.3881253,52.1782037 C48.2841253,52.4542037 48.3531253,52.7632037 48.5611253,52.9712037 L52.1441253,56.5532037 C49.9621253,57.1092037 47.7541253,56.5972037 46.2901253,55.1322037 C44.5711253,53.4122037 44.1631253,50.6772037 45.2491253,48.1662037 C45.3711253,47.8842037 45.3091253,47.5562037 45.0911253,47.3382037 L38.4271253,40.6722037 C38.1341253,40.3792037 37.6591253,40.3792037 37.3661253,40.6722037 C37.0731253,40.9642037 37.0731253,41.4402037 37.3661253,41.7332037 L43.6811253,48.0492037 C42.6001253,50.9952037 43.1841253,54.1462037 45.2301253,56.1932037 C46.5951253,57.5592037 48.4571253,58.2732037 50.4231253,58.2732037 C51.5451253,58.2732037 52.7021253,58.0402037 53.8191253,57.5622037 C54.0481253,57.4642037 54.2141253,57.2592037 54.2611253,57.0152037 C54.3081253,56.7702037 54.2301253,56.5182037 54.0541253,56.3422037 L49.9621253,52.2512037 L50.9091253,49.7132037 L53.4411253,48.7742037 L57.5311253,52.8642037 C57.7061253,53.0392037 57.9581253,53.1182037 58.2031253,53.0702037 C58.4461253,53.0232037 58.6521253,52.8582037 58.7511253,52.6292037 C60.0691253,49.5602037 59.5321253,46.1892037 57.3831253,44.0412037 L57.3831253,44.0412037 Z" id="Fill-187" fill="#FFFFFF"></path>
            </g>
        </g>
    </g>
</svg>