<?xml version="1.0" encoding="UTF-8" standalone="no"?>
<svg width="76px" height="77px" viewBox="0 0 76 77" version="1.1" xmlns="http://www.w3.org/2000/svg" xmlns:xlink="http://www.w3.org/1999/xlink">
    <!-- Generator: Sketch 39.1 (31720) - http://www.bohemiancoding.com/sketch -->
    <title>Group 14</title>
    <desc>Created with Sketch.</desc>
    <defs></defs>
    <g id="new" stroke="none" stroke-width="1" fill="none" fill-rule="evenodd">
        <g id="Group-12" transform="translate(-1.000000, -101.000000)">
            <g id="Group-14" transform="translate(1.000000, 101.600000)">
                <circle id="Oval" fill="#134D86" cx="38" cy="38" r="38"></circle>
                <path d="M32.773,49.882 L25.168,57.411 C24.874,57.702 24.872,58.177 25.163,58.471 C25.31,58.62 25.503,58.694 25.696,58.694 C25.887,58.694 26.078,58.622 26.224,58.477 L33.828,50.949 C34.123,50.657 34.125,50.182 33.833,49.887 C33.541,49.593 33.067,49.592 32.773,49.882 L32.773,49.882 Z M43.695,49.882 C43.401,49.592 42.926,49.593 42.635,49.887 C42.343,50.182 42.345,50.657 42.64,50.948 L50.24,58.476 C50.387,58.622 50.577,58.694 50.768,58.694 C50.961,58.694 51.154,58.62 51.301,58.471 C51.592,58.177 51.59,57.703 51.296,57.411 L43.695,49.882 L43.695,49.882 Z M27.314,39.647 C27.506,39.647 27.698,39.574 27.844,39.427 L34.856,32.415 L40.071,37.631 C40.212,37.771 40.402,37.85 40.602,37.85 C40.8,37.85 40.991,37.771 41.132,37.631 L49.681,29.082 C49.974,28.789 49.974,28.314 49.681,28.021 C49.388,27.728 48.914,27.728 48.621,28.021 L40.602,36.04 L35.387,30.824 C35.246,30.683 35.055,30.604 34.856,30.604 C34.658,30.604 34.467,30.683 34.326,30.824 L26.784,38.367 C26.491,38.66 26.491,39.134 26.784,39.427 C26.93,39.574 27.122,39.647 27.314,39.647 L27.314,39.647 Z M58.713,46.749 L55.385,46.749 L55.385,22.5 L58.713,22.5 C59.127,22.5 59.463,22.164 59.463,21.75 C59.463,21.336 59.127,21 58.713,21 L17.75,21 C17.336,21 17,21.336 17,21.75 C17,22.164 17.336,22.5 17.75,22.5 L21.08,22.5 L21.08,46.749 L17.75,46.749 C17.336,46.749 17,47.085 17,47.499 C17,47.913 17.336,48.249 17.75,48.249 L58.713,48.249 C59.127,48.249 59.463,47.913 59.463,47.499 C59.463,47.085 59.127,46.749 58.713,46.749 L58.713,46.749 Z M22.58,22.5 L53.885,22.5 L53.885,46.749 L22.58,46.749 L22.58,22.5 Z" id="Fill-169" fill="#FFFFFF"></path>
            </g>
        </g>
    </g>
</svg>