<?xml version="1.0" encoding="UTF-8" standalone="no"?>
<svg width="76px" height="77px" viewBox="0 0 76 77" version="1.1" xmlns="http://www.w3.org/2000/svg" xmlns:xlink="http://www.w3.org/1999/xlink">
    <!-- Generator: Sketch 39.1 (31720) - http://www.bohemiancoding.com/sketch -->
    <title>Group 15</title>
    <desc>Created with Sketch.</desc>
    <defs></defs>
    <g id="new" stroke="none" stroke-width="1" fill="none" fill-rule="evenodd">
        <g id="Group-12" transform="translate(-1.000000, -203.000000)">
            <g id="Group-15" transform="translate(1.000000, 203.200000)">
                <path d="M38,76 C58.9868205,76 76,58.9868205 76,38 C76,17.0131795 58.9868205,0 38,0 C17.0131795,0 0,17.0131795 0,38 C0,58.9868205 17.0131795,76 38,76 Z" id="Oval" fill="#A97A3C"></path>
                <path d="M30.0998822,47.96375 L30.0998822,51.64475 C30.0998822,52.05875 30.4348822,52.39475 30.8498822,52.39475 C31.2638822,52.39475 31.5998822,52.05875 31.5998822,51.64475 L31.5998822,47.66575 C31.5998822,47.47475 31.5258822,47.29075 31.3948822,47.15075 L23.9768822,39.28375 L37.6208822,16.44075 L37.6208822,31.30275 C36.4448822,31.63275 35.5748822,32.70275 35.5748822,33.98175 C35.5748822,35.52475 36.8298822,36.78075 38.3708822,36.78075 C39.9148822,36.78075 41.1718822,35.52475 41.1718822,33.98175 C41.1718822,32.70175 40.2998822,31.63175 39.1208822,31.30175 L39.1208822,16.44475 L52.7728822,39.29375 L45.6188822,47.16075 C45.4928822,47.29975 45.4238822,47.47975 45.4238822,47.66575 L45.4238822,51.64475 C45.4238822,52.05875 45.7598822,52.39475 46.1738822,52.39475 C46.5878822,52.39475 46.9238822,52.05875 46.9238822,51.64475 L46.9238822,47.95575 L54.2568822,39.89175 C54.4798822,39.64675 54.5158822,39.28575 54.3468822,39.00175 L39.0138822,13.33975 C38.7418822,12.88675 37.9968822,12.88675 37.7258822,13.33975 L22.3978822,39.00175 C22.2258822,39.28975 22.2668822,39.65675 22.4968822,39.90075 L30.0998822,47.96375 L30.0998822,47.96375 Z M38.3708822,32.68775 C39.0878822,32.68775 39.6718822,33.26875 39.6718822,33.98175 C39.6718822,34.69775 39.0878822,35.28075 38.3708822,35.28075 C37.6568822,35.28075 37.0748822,34.69775 37.0748822,33.98175 C37.0748822,33.26875 37.6568822,32.68775 38.3708822,32.68775 L38.3708822,32.68775 Z M54.3038822,54.51875 C54.2298822,54.17175 53.9238822,53.92375 53.5698822,53.92375 L22.6998822,53.92375 C22.3448822,53.92375 22.0388822,54.17175 21.9658822,54.51875 L21.0158822,59.02075 C20.9698822,59.24175 21.0248822,59.47275 21.1668822,59.64775 C21.3098822,59.82375 21.5238822,59.92575 21.7498822,59.92575 L54.5208822,59.92575 C54.7468822,59.92575 54.9608822,59.82375 55.1028822,59.64775 C55.2458822,59.47275 55.3018822,59.24175 55.2548822,59.02075 L54.3038822,54.51875 L54.3038822,54.51875 Z M22.6748822,58.42575 L23.3078822,55.42375 L52.9618822,55.42375 L53.5958822,58.42575 L22.6748822,58.42575 L22.6748822,58.42575 Z" id="Fill-40" fill="#FFFFFF"></path>
            </g>
        </g>
    </g>
</svg>