<?xml version="1.0" encoding="UTF-8" standalone="no"?>
<svg width="76px" height="76px" viewBox="0 0 76 76" version="1.1" xmlns="http://www.w3.org/2000/svg" xmlns:xlink="http://www.w3.org/1999/xlink">
    <!-- Generator: Sketch 39.1 (31720) - http://www.bohemiancoding.com/sketch -->
    <title>Group 13</title>
    <desc>Created with Sketch.</desc>
    <defs></defs>
    <g id="new" stroke="none" stroke-width="1" fill="none" fill-rule="evenodd">
        <g id="Group-12">
            <g id="Group-13">
                <path d="M38,76 C58.9868205,76 76,58.9868205 76,38 C76,17.0131795 58.9868205,0 38,0 C17.0131795,0 0,17.0131795 0,38 C0,58.9868205 17.0131795,76 38,76 Z" id="Oval" fill="#538E45"></path>
                <path d="M47.806,44.994 C45.487,44.994 43.409,46.033 42.003,47.665 L30.892,39.82 C31.76,38.374 32.268,36.689 32.268,34.883 C32.268,33.678 32.036,32.53 31.63,31.465 L41.988,26.719 C43.109,28.684 45.22,30.015 47.64,30.015 C51.228,30.015 54.148,27.095 54.148,23.506 C54.148,19.919 51.228,17 47.64,17 C44.052,17 41.132,19.919 41.132,23.506 C41.132,24.142 41.228,24.757 41.399,25.34 L30.99,30.109 C29.327,27.212 26.208,25.251 22.633,25.251 C17.321,25.251 13,29.572 13,34.883 C13,40.196 17.321,44.518 22.633,44.518 C25.603,44.518 28.261,43.166 30.03,41.048 L41.139,48.891 C40.509,50.003 40.144,51.284 40.144,52.65 C40.144,56.874 43.581,60.309 47.806,60.309 C52.029,60.309 55.463,56.874 55.463,52.65 C55.463,48.428 52.029,44.994 47.806,44.994 L47.806,44.994 Z M47.64,18.5 C50.401,18.5 52.648,20.745 52.648,23.506 C52.648,26.268 50.401,28.515 47.64,28.515 C44.879,28.515 42.632,26.268 42.632,23.506 C42.632,20.745 44.879,18.5 47.64,18.5 L47.64,18.5 Z M22.633,43.018 C18.148,43.018 14.5,39.369 14.5,34.883 C14.5,30.399 18.148,26.751 22.633,26.751 C27.119,26.751 30.768,30.399 30.768,34.883 C30.768,39.369 27.119,43.018 22.633,43.018 L22.633,43.018 Z M47.806,58.809 C44.408,58.809 41.644,56.046 41.644,52.65 C41.644,49.256 44.408,46.494 47.806,46.494 C51.201,46.494 53.963,49.256 53.963,52.65 C53.963,56.046 51.201,58.809 47.806,58.809 L47.806,58.809 Z" id="Fill-181" fill="#FFFFFF"></path>
            </g>
        </g>
    </g>
</svg>