<?xml version="1.0" encoding="UTF-8" standalone="no"?>
<svg width="76px" height="77px" viewBox="0 0 76 77" version="1.1" xmlns="http://www.w3.org/2000/svg" xmlns:xlink="http://www.w3.org/1999/xlink">
    <!-- Generator: Sketch 39.1 (31720) - http://www.bohemiancoding.com/sketch -->
    <title>Group 17</title>
    <desc>Created with Sketch.</desc>
    <defs></defs>
    <g id="new" stroke="none" stroke-width="1" fill="none" fill-rule="evenodd">
        <g id="Group-12" transform="translate(-1.000000, -406.000000)">
            <g id="Group-17" transform="translate(1.000000, 406.400000)">
                <circle id="Oval" fill="#696663" cx="38" cy="38" r="38"></circle>
                <path d="M46.9544206,24.125 C47.2354206,24.089 47.5304206,24.089 47.8334206,24.128 C48.8264206,24.228 49.7164206,24.715 50.3414206,25.503 C50.9604206,26.271 51.2394206,27.247 51.1254206,28.275 C51.1034206,28.535 51.0384206,28.81 50.9274206,29.115 C50.7844206,29.503 50.9834206,29.934 51.3724206,30.077 C51.4574206,30.109 51.5454206,30.123 51.6314206,30.123 C51.9364206,30.123 52.2244206,29.935 52.3354206,29.632 C52.4944206,29.199 52.5874206,28.795 52.6184206,28.419 C52.7744206,27.013 52.3814206,25.644 51.5134206,24.567 C50.6374206,23.462 49.3834206,22.777 48.0064206,22.638 C47.5924206,22.583 47.1714206,22.583 46.7574206,22.638 C46.3474206,22.693 46.0584206,23.07 46.1124206,23.48 C46.1664206,23.891 46.5464206,24.181 46.9544206,24.125 L46.9544206,24.125 Z M56.3894206,20.476 C54.7704206,18.482 52.4324206,17.259 49.8094206,17.033 C49.4714206,17.001 49.1354206,17 48.7344206,17 C48.3204206,17 47.9844206,17.336 47.9844206,17.75 C47.9844206,18.164 48.3204206,18.5 48.7344206,18.5 C49.0804206,18.5 49.3764206,18.499 49.6754206,18.527 C51.8944206,18.718 53.8654206,19.746 55.2204206,21.416 C56.5634206,23.101 57.1374206,25.245 56.8364206,27.446 C56.7944206,27.722 56.7404206,27.998 56.6714206,28.275 C56.5704206,28.677 56.8144206,29.084 57.2164206,29.185 C57.2774206,29.2 57.3394206,29.207 57.3994206,29.207 C57.7354206,29.207 58.0404206,28.98 58.1264206,28.639 C58.2074206,28.315 58.2714206,27.992 58.3214206,27.658 C58.6794206,25.038 57.9944206,22.49 56.3894206,20.476 L56.3894206,20.476 Z M32.2404206,52.479 C31.9754206,51.95 31.4194206,51.402 30.8454206,51.144 C30.8074206,51.13 27.0044206,49.827 24.5144206,46.4 C24.3024206,46.09 23.9714206,45.912 23.6044206,45.912 C23.0704206,45.912 22.5594206,46.293 22.3894206,46.774 L18.0804206,55.963 C17.9364206,56.378 17.9874206,56.804 18.2204206,57.132 C18.4544206,57.461 18.8424206,57.65 19.2834206,57.65 L32.5914206,57.65 C33.0454206,57.65 33.4334206,57.452 33.6554206,57.106 C33.8744206,56.763 33.8934206,56.333 33.7164206,55.946 L32.2404206,52.479 L32.2404206,52.479 Z M19.6454206,56.15 L23.6124206,47.692 C26.3794206,51.199 30.1984206,52.508 30.2954206,52.536 C30.4884206,52.625 30.7874206,52.93 30.8794206,53.109 L32.1724206,56.15 L19.6454206,56.15 L19.6454206,56.15 Z M32.5914206,56.9 L32.5914206,56.15 L32.5934206,56.15 L32.5914206,56.9 L32.5914206,56.9 Z M40.7494206,37.122 L42.9604206,33.986 C43.3024206,34.102 43.6544206,34.16 44.0154206,34.16 C45.8774206,34.16 47.3924206,32.645 47.3924206,30.783 C47.3924206,28.919 45.8774206,27.405 44.0154206,27.405 C42.1514206,27.405 40.6364206,28.919 40.6364206,30.783 C40.6364206,31.109 40.6844206,31.43 40.7824206,31.744 L37.4344206,33.872 L25.0344206,21.763 C24.5844206,21.325 24.1584206,21.233 23.8794206,21.233 C23.3514206,21.233 22.6794206,21.592 22.5204206,22.615 C22.4204206,23.326 20.1484206,40.087 27.3354206,47.105 C31.6484206,51.316 39.5924206,52.2 45.4974206,52.2 C49.4154206,52.2 52.2884206,51.817 52.4084206,51.801 C53.0734206,51.712 53.5514206,51.369 53.7204206,50.859 C53.8904206,50.346 53.7084206,49.78 53.2224206,49.305 L40.7494206,37.122 L40.7494206,37.122 Z M44.0154206,28.905 C45.0504206,28.905 45.8924206,29.746 45.8924206,30.783 C45.8924206,31.818 45.0504206,32.66 44.0154206,32.66 C43.6944206,32.66 43.3804206,32.573 43.0794206,32.399 C42.9614206,32.33 42.8324206,32.298 42.7044206,32.298 C42.5974206,32.298 42.4904206,32.321 42.3924206,32.366 C42.4964206,32.153 42.4974206,31.896 42.3764206,31.675 C42.2174206,31.385 42.1364206,31.084 42.1364206,30.783 C42.1364206,29.746 42.9784206,28.905 44.0154206,28.905 L44.0154206,28.905 Z M45.4984206,50.7 L45.4974206,50.7 C39.8714206,50.7 32.3344206,49.89 28.3834206,46.032 C21.8324206,39.635 23.9214206,23.453 24.0014206,22.852 L36.8114206,35.361 C37.0614206,35.604 37.4454206,35.643 37.7384206,35.456 L41.9974206,32.747 L39.1554206,36.781 C38.9434206,37.081 38.9804206,37.492 39.2444206,37.749 L52.1204206,50.326 C51.6104206,50.389 48.9354206,50.7 45.4984206,50.7 L45.4984206,50.7 Z" id="Fill-195" fill="#FFFFFF"></path>
            </g>
        </g>
    </g>
</svg>